<svg width="851" height="842" viewBox="0 0 851 842" fill="none" xmlns="http://www.w3.org/2000/svg">
<g clip-path="url(#clip0)">
<path d="M845.506 754.445C838.213 757.009 830.383 757.651 822.77 756.31C815.157 754.969 808.017 751.69 802.039 746.789C786.815 734.01 782.041 712.964 778.158 693.471L766.671 635.813L790.721 652.373C808.018 664.282 825.703 676.574 837.678 693.824C849.653 711.073 854.877 734.622 845.258 753.287" fill="#07D962"/>
<path d="M841.793 828.265C844.82 806.211 847.934 783.872 845.806 761.582C843.919 741.785 837.88 722.453 825.584 706.596C819.057 698.196 811.115 690.999 802.116 685.329C799.769 683.848 797.609 687.566 799.946 689.041C815.518 698.882 827.563 713.414 834.344 730.543C841.833 749.589 843.035 770.353 841.745 790.587C840.966 802.823 839.309 814.978 837.645 827.119C837.513 827.669 837.595 828.247 837.874 828.738C838.153 829.229 838.608 829.596 839.147 829.764C839.696 829.912 840.282 829.837 840.777 829.556C841.273 829.275 841.637 828.81 841.791 828.262L841.793 828.265Z" fill="#F2F2F2"/>
<path d="M820.004 792.877C816.877 797.632 812.577 801.501 807.521 804.112C802.464 806.723 796.82 807.987 791.132 807.783C776.513 807.09 764.33 796.89 753.364 787.204L720.922 758.56L742.393 757.533C757.833 756.793 773.672 756.099 788.379 760.866C803.086 765.634 816.649 777.088 819.337 792.311" fill="#E6E6E6"/>
<path d="M850.349 840.942C835.776 815.156 818.873 786.498 788.669 777.338C780.271 774.8 771.466 773.89 762.727 774.659C759.972 774.897 760.66 779.142 763.409 778.906C778.058 777.689 792.679 781.558 804.81 789.859C816.484 797.805 825.574 808.853 833.266 820.567C837.979 827.743 842.2 835.223 846.421 842.694C847.769 845.081 851.714 843.357 850.349 840.942Z" fill="#F2F2F2"/>
<path d="M522.989 541.176C566.686 541.176 602.109 505.752 602.109 462.056C602.109 418.359 566.686 382.935 522.989 382.935C479.293 382.935 443.87 418.359 443.87 462.056C443.87 505.752 479.293 541.176 522.989 541.176Z" fill="#F2F2F2"/>
<path d="M522.989 542.499C507.079 542.499 491.526 537.781 478.297 528.942C465.069 520.103 454.758 507.539 448.669 492.84C442.581 478.141 440.988 461.966 444.092 446.362C447.196 430.757 454.857 416.423 466.107 405.173C477.357 393.923 491.691 386.261 507.296 383.157C522.9 380.053 539.074 381.646 553.774 387.735C568.473 393.824 581.036 404.134 589.875 417.363C598.715 430.592 603.433 446.145 603.433 462.055C603.409 483.383 594.925 503.83 579.845 518.911C564.764 533.992 544.317 542.475 522.989 542.499ZM522.989 384.259C507.603 384.259 492.562 388.822 479.768 397.37C466.975 405.919 457.004 418.069 451.116 432.284C445.228 446.5 443.687 462.142 446.689 477.233C449.69 492.324 457.1 506.185 467.98 517.065C478.86 527.945 492.721 535.355 507.812 538.357C522.903 541.358 538.545 539.818 552.76 533.93C566.976 528.041 579.126 518.07 587.674 505.277C596.222 492.483 600.785 477.442 600.785 462.055C600.761 441.43 592.558 421.656 577.973 407.071C563.389 392.487 543.615 384.283 522.989 384.259Z" fill="#3F3D56"/>
<path d="M509.637 522.151L509.109 521.924C508.806 521.794 501.715 518.591 504.263 505.345L504.309 505.199L505.253 503.093C508.027 496.884 509.383 490.136 509.223 483.338C503.524 483.207 474.31 482.378 470.891 479.202C469.745 478.142 469.053 476.681 468.958 475.123L468.784 472.338C468.731 471.484 468.853 470.629 469.143 469.825C469.433 469.02 469.884 468.284 470.469 467.661C471.055 467.038 471.762 466.541 472.546 466.202C473.331 465.862 474.177 465.687 475.032 465.687H476.714L475.523 464.326C474.569 463.237 474.044 461.838 474.044 460.391V458.086C474.044 457.02 474.329 455.974 474.87 455.056C475.41 454.137 476.187 453.38 477.118 452.863L478.074 452.331L477.524 451.781C476.753 451.01 476.208 450.043 475.947 448.984C475.686 447.925 475.72 446.815 476.045 445.774C476.371 444.733 476.974 443.801 477.792 443.078C478.609 442.356 479.608 441.871 480.681 441.676L486.935 440.538C487.065 438.293 487.983 436.166 489.528 434.532C491.072 432.898 493.144 431.861 495.378 431.604L513.255 429.542C522.503 427.893 531.928 427.476 541.285 428.302L544.023 428.544L571.683 425.245V462.222L546.104 465.733L524.562 490.702C520.929 501.237 516.184 511.354 510.407 520.883L509.637 522.151Z" fill="#FFB7B7"/>
<path opacity="0.2" d="M507.294 519.204L506.085 518.663L510.242 509.369L515.113 510.87L514.724 512.134L510.973 510.98L507.294 519.204Z" fill="black"/>
<path d="M458.066 433.065L449.598 315.571L451.209 276.356L418.202 283.7L430.36 437.655C428.983 440.493 428.412 443.655 428.711 446.796C429.01 449.936 430.167 452.934 432.055 455.461C433.943 457.988 436.49 459.948 439.416 461.125C442.343 462.303 445.537 462.653 448.649 462.137C451.761 461.621 454.672 460.26 457.062 458.202C459.453 456.143 461.232 453.467 462.204 450.466C463.176 447.465 463.304 444.255 462.574 441.185C461.845 438.116 460.285 435.307 458.066 433.065V433.065Z" fill="#FFB7B7"/>
<path d="M295.757 324.99L293.658 285.624L272.475 268.412L260.203 304.866L191.565 396.409C188.32 396.929 185.292 398.368 182.839 400.555C180.386 402.742 178.61 405.586 177.723 408.75C176.836 411.915 176.873 415.267 177.831 418.411C178.789 421.554 180.628 424.358 183.129 426.489C185.631 428.621 188.691 429.991 191.946 430.438C195.202 430.885 198.518 430.391 201.502 429.012C204.485 427.634 207.011 425.43 208.781 422.66C210.551 419.891 211.491 416.673 211.489 413.387C211.489 413.155 211.464 412.93 211.455 412.701L295.757 324.99Z" fill="#FFB7B7"/>
<path d="M299.555 312.389L247.851 257.205L286.242 176.879C287.018 175.233 288.119 173.76 289.477 172.549C290.835 171.339 292.424 170.414 294.148 169.831C295.843 169.25 297.638 169.017 299.425 169.145C301.212 169.273 302.955 169.761 304.549 170.578L304.927 170.77L299.555 312.389Z" fill="#07D962"/>
<path d="M414.936 303.693L405.752 249.85L405.787 249.714L427.5 164.358L429.534 164.121C435.4 163.474 441.297 165.039 446.071 168.51C450.845 171.98 454.152 177.107 455.346 182.887L475.807 284.755L414.936 303.693Z" fill="#07D962"/>
<path d="M426.632 141.311H316.744V91.6627C316.744 77.0904 322.532 63.1151 332.836 52.811C343.14 42.5068 357.116 36.718 371.688 36.718C386.26 36.718 400.235 42.5068 410.539 52.811C420.843 63.1151 426.632 77.0904 426.632 91.6627V141.311Z" fill="#2F2E41"/>
<path d="M567.017 759.743L548.419 775.396L479.196 711.111L506.644 688.009L567.017 759.743Z" fill="#FFB7B7"/>
<path d="M586.933 773.778L526.967 824.249L526.328 823.49C521.119 817.3 518.581 809.294 519.274 801.233C519.967 793.172 523.834 785.716 530.023 780.505L530.025 780.504L566.65 749.678L586.933 773.778Z" fill="#2F2E41"/>
<path d="M288.257 820.546L263.951 820.545L252.386 726.785L288.262 726.786L288.257 820.546Z" fill="#FFB7B7"/>
<path d="M294.457 844.108L216.079 844.105V843.114C216.079 835.023 219.294 827.264 225.015 821.543C230.736 815.822 238.495 812.608 246.586 812.607H246.588L294.458 812.609L294.457 844.108Z" fill="#2F2E41"/>
<path d="M181.652 797.013L193.752 658.517C199.889 588.375 214.331 519.209 236.774 452.471L287.442 301.871L291.867 266.799C278.385 238.842 292.664 217.549 294.309 215.252L292.55 180.412C292.516 179.727 292.467 179.065 292.421 178.426C291.917 171.582 292.284 167.637 305.641 166.159L416.468 162.742C430.492 162.684 438.994 165.015 442.448 169.986C446.422 175.707 443.269 183.998 440.22 192.015C439.903 192.849 439.585 193.683 439.276 194.517L395.378 312.388C416.621 353.455 412.526 416.263 412.482 416.894L414.039 435.47L575.184 698.817L479.905 787.785L479.481 787.095L325.999 537.513L324.68 789.066L324.059 789.101L181.652 797.013Z" fill="#2F2E41"/>
<path d="M409.828 119.434C421.725 97.6704 413.726 70.3831 391.963 58.486C370.2 46.589 342.912 54.5874 331.015 76.351C319.119 98.1146 327.117 125.402 348.88 137.299C370.644 149.196 397.931 141.198 409.828 119.434Z" fill="#FFB7B7"/>
<path d="M392.103 59.7908C408.614 59.7908 421.998 46.4062 421.998 29.8954C421.998 13.3846 408.614 0 392.103 0C375.593 0 362.208 13.3846 362.208 29.8954C362.208 46.4062 375.593 59.7908 392.103 59.7908Z" fill="#2F2E41"/>
<path d="M431.928 100.268H322.04V99.6065C322.04 85.0342 327.828 71.0589 338.132 60.7548C348.436 50.4506 362.412 44.6618 376.984 44.6618C391.556 44.6618 405.531 50.4506 415.835 60.7548C426.139 71.0589 431.928 85.0342 431.928 99.6065V100.268Z" fill="#2F2E41"/>
<path d="M146.985 429.962C190.682 429.962 226.105 394.539 226.105 350.842C226.105 307.145 190.682 271.722 146.985 271.722C103.289 271.722 67.8657 307.145 67.8657 350.842C67.8657 394.539 103.289 429.962 146.985 429.962Z" fill="#F2F2F2"/>
<path d="M146.985 431.286C131.075 431.286 115.522 426.568 102.293 417.729C89.0645 408.889 78.7539 396.326 72.6654 381.627C66.5768 366.927 64.9838 350.753 68.0877 335.148C71.1917 319.544 78.8532 305.21 90.1034 293.96C101.354 282.709 115.687 275.048 131.292 271.944C146.896 268.84 163.071 270.433 177.77 276.522C192.469 282.61 205.032 292.921 213.872 306.15C222.711 319.379 227.429 334.932 227.429 350.842C227.404 372.17 218.921 392.617 203.841 407.698C188.76 422.779 168.313 431.262 146.985 431.286ZM146.985 273.046C131.599 273.046 116.558 277.609 103.764 286.157C90.971 294.706 80.9998 306.856 75.1117 321.071C69.2236 335.286 67.683 350.929 70.6848 366.019C73.6865 381.11 81.0958 394.972 91.9757 405.852C102.856 416.732 116.717 424.142 131.808 427.143C146.899 430.145 162.541 428.604 176.756 422.716C190.972 416.828 203.122 406.857 211.67 394.063C220.218 381.27 224.781 366.229 224.781 350.842C224.757 330.216 216.554 310.442 201.969 295.858C187.385 281.273 167.611 273.069 146.985 273.046Z" fill="#3F3D56"/>
<path d="M98.291 387.653V350.676L123.87 347.165L145.412 322.195C149.045 311.661 153.79 301.544 159.568 292.015L160.337 290.747L160.866 290.973C161.169 291.103 168.259 294.307 165.711 307.553L165.666 307.699L164.721 309.806C161.948 316.014 160.592 322.762 160.751 329.559C166.451 329.691 195.664 330.52 199.083 333.696C200.229 334.756 200.921 336.217 201.016 337.775L201.19 340.561C201.244 341.414 201.122 342.269 200.832 343.074C200.542 343.878 200.09 344.614 199.505 345.237C198.92 345.86 198.213 346.357 197.428 346.696C196.644 347.036 195.798 347.211 194.943 347.211H193.261L194.452 348.572C195.405 349.661 195.93 351.059 195.93 352.507V354.812C195.93 355.877 195.645 356.923 195.104 357.842C194.564 358.76 193.788 359.518 192.857 360.036L191.9 360.567L192.45 361.117C193.221 361.888 193.767 362.855 194.027 363.914C194.288 364.973 194.254 366.083 193.929 367.124C193.603 368.165 193 369.097 192.183 369.82C191.366 370.542 190.366 371.027 189.294 371.222L183.039 372.359C182.909 374.604 181.991 376.731 180.446 378.366C178.902 380 176.83 381.037 174.596 381.294L156.719 383.356C147.471 385.006 138.046 385.423 128.689 384.596L125.951 384.354L98.291 387.653Z" fill="#FFB7B7"/>
<path opacity="0.2" d="M159.731 303.529L154.86 302.029L155.25 300.763L159 301.919L162.681 293.694L163.89 294.234L159.731 303.529Z" fill="black"/>
</g>
<defs>
<clipPath id="clip0">
<rect width="851" height="845" fill="white"/>
</clipPath>
</defs>
</svg>
