<svg width="35" height="33" viewBox="0 0 35 33" fill="none" xmlns="http://www.w3.org/2000/svg">
<path d="M7.83437 33H0.578125V10.9676H7.83437V33ZM4.20234 7.96216C1.88203 7.96216 0 6.15007 0 3.9623C1.66078e-08 2.91143 0.442746 1.90361 1.23084 1.16053C2.01893 0.417455 3.08781 0 4.20234 0C5.31687 0 6.38576 0.417455 7.17385 1.16053C7.96194 1.90361 8.40469 2.91143 8.40469 3.9623C8.40469 6.15007 6.52187 7.96216 4.20234 7.96216ZM34.9922 33H27.7516V22.2748C27.7516 19.7187 27.6969 16.4407 23.9789 16.4407C20.2062 16.4407 19.6281 19.2178 19.6281 22.0906V33H12.3797V10.9676H19.3391V13.973H19.4406C20.4094 12.2419 22.7758 10.4151 26.3062 10.4151C33.65 10.4151 35 14.9748 35 20.8973V33H34.9922Z" fill="#2F2E41"/>
</svg>
