<svg width="35" height="31" viewBox="0 0 35 31" fill="none" xmlns="http://www.w3.org/2000/svg">
<path d="M31.4024 7.72575C31.4246 8.0648 31.4246 8.40392 31.4246 8.74297C31.4246 19.0843 24.207 31 11.0153 31C6.95115 31 3.17578 29.7163 0 27.4883C0.577434 27.5609 1.13258 27.5852 1.73223 27.5852C5.08562 27.5852 8.1726 26.35 10.6377 24.243C7.48415 24.1703 4.84137 21.918 3.93082 18.818C4.37502 18.8906 4.81915 18.939 5.28557 18.939C5.92958 18.939 6.57367 18.8421 7.17325 18.6727C3.88645 17.946 1.42127 14.7976 1.42127 10.9953V10.8985C2.37618 11.4797 3.48668 11.843 4.66363 11.8914C2.73151 10.4867 1.4657 8.08903 1.4657 5.37651C1.4657 3.92341 1.82096 2.59138 2.44283 1.42887C5.97395 6.17574 11.2817 9.27569 17.2335 9.61481C17.1224 9.03356 17.0558 8.42815 17.0558 7.82267C17.0558 3.51168 20.2538 0 24.229 0C26.2944 0 28.1599 0.944529 29.4702 2.47031C31.0913 2.13127 32.6459 1.47733 34.0229 0.581254C33.4898 2.3977 32.3572 3.92348 30.8693 4.89217C32.3129 4.72272 33.712 4.28668 35 3.68128C34.023 5.23121 32.8015 6.61163 31.4024 7.72575Z" fill="#2F2E41"/>
</svg>
